HIERARCHY
ROOT Hips
{
	OFFSET 0.000000 0.000000 0.000000
	CHANNELS 6 Xposition Yposition Zposition Zrotation Yrotation Xrotation 
	JOINT LHipJoint
	{
		OFFSET 0.000000 0.000000 0.000000
		CHANNELS 3 Zrotation Yrotation Xrotation
		JOINT LeftUpLeg
		{
			OFFSET 1.363060 -1.794630 0.839290
			CHANNELS 3 Zrotation Yrotation Xrotation
			JOINT LeftLeg
			{
				OFFSET 2.448110 -6.726130 0.000000
				CHANNELS 3 Zrotation Yrotation Xrotation
				JOINT LeftFoot
				{
					OFFSET 2.562200 -7.039590 0.000000
					CHANNELS 3 Zrotation Yrotation Xrotation
					JOINT LeftToeBase
					{
						OFFSET 0.157640 -0.433110 2.322550
						CHANNELS 3 Zrotation Yrotation Xrotation
						End Site
						{
							OFFSET 0.000000 0.000000 0.000000
						}
					}
				}
			}
		}
	}
	JOINT RHipJoint
	{
		OFFSET 0.000000 0.000000 0.000000
		CHANNELS 3 Zrotation Yrotation Xrotation
		JOINT RightUpLeg
		{
			OFFSET -1.305520 -1.794630 0.839290
			CHANNELS 3 Zrotation Yrotation Xrotation
			JOINT RightLeg
			{
				OFFSET -2.542530 -6.985550 0.000000
				CHANNELS 3 Zrotation Yrotation Xrotation
				JOINT RightFoot
				{
					OFFSET -2.568260 -7.056230 0.000000
					CHANNELS 3 Zrotation Yrotation Xrotation
					JOINT RightToeBase
					{
						OFFSET -0.164730 -0.452590 2.363150
						CHANNELS 3 Zrotation Yrotation Xrotation
						End Site
						{
							OFFSET 0.000000 0.000000 0.000000
						}
					}
				}
			}
		}
	}
	JOINT LowerBack
	{
		OFFSET 0.000000 0.000000 0.000000
		CHANNELS 3 Zrotation Yrotation Xrotation
		JOINT Spine
		{
			OFFSET 0.028270 2.035590 -0.193380
			CHANNELS 3 Zrotation Yrotation Xrotation
			JOINT Spine1
			{
				OFFSET 0.056720 2.048850 -0.042750
				CHANNELS 3 Zrotation Yrotation Xrotation
				JOINT Neck
				{
					OFFSET 0.000000 0.000000 0.000000
					CHANNELS 3 Zrotation Yrotation Xrotation
					JOINT Neck1
					{
						OFFSET -0.054170 1.746240 0.172020
						CHANNELS 3 Zrotation Yrotation Xrotation
						JOINT Head
						{
							OFFSET 0.104070 1.761360 -0.123970
							CHANNELS 3 Zrotation Yrotation Xrotation
							End Site
							{
								OFFSET 0.000000 0.000000 0.000000
							}
						}
					}
				}
				JOINT LeftShoulder
				{
					OFFSET 0.000000 0.000000 0.000000
					CHANNELS 3 Zrotation Yrotation Xrotation
					JOINT LeftArm
					{
						OFFSET 3.362410 1.200890 -0.311210
						CHANNELS 3 Zrotation Yrotation Xrotation
						JOINT LeftForeArm
						{
							OFFSET 4.983000 -0.000000 -0.000000
							CHANNELS 3 Zrotation Yrotation Xrotation
							JOINT LeftHand
							{
								OFFSET 3.483560 -0.000000 -0.000000
								CHANNELS 3 Zrotation Yrotation Xrotation
								JOINT LeftFingerBase
								{
									OFFSET 0.000000 0.000000 0.000000
									CHANNELS 3 Zrotation Yrotation Xrotation
									JOINT LeftHandIndex1
									{
										OFFSET 0.715260 -0.000000 -0.000000
										CHANNELS 3 Zrotation Yrotation Xrotation
										End Site
										{
											OFFSET 0.000000 0.000000 0.000000
										}
									}
								}
								JOINT LThumb
								{
									OFFSET 0.000000 0.000000 0.000000
									CHANNELS 3 Zrotation Yrotation Xrotation
									End Site
									{
										OFFSET 0.000000 0.000000 0.000000
									}
								}
							}
						}
					}
				}
				JOINT RightShoulder
				{
					OFFSET 0.000000 0.000000 0.000000
					CHANNELS 3 Zrotation Yrotation Xrotation
					JOINT RightArm
					{
						OFFSET -3.136600 1.374050 -0.404650
						CHANNELS 3 Zrotation Yrotation Xrotation
						JOINT RightForeArm
						{
							OFFSET -5.241900 -0.000000 -0.000000
							CHANNELS 3 Zrotation Yrotation Xrotation
							JOINT RightHand
							{
								OFFSET -3.444170 -0.000000 -0.000000
								CHANNELS 3 Zrotation Yrotation Xrotation
								JOINT RightFingerBase
								{
									OFFSET 0.000000 0.000000 0.000000
									CHANNELS 3 Zrotation Yrotation Xrotation
									JOINT RightHandIndex1
									{
										OFFSET -0.622530 -0.000000 -0.000000
										CHANNELS 3 Zrotation Yrotation Xrotation
										End Site
										{
											OFFSET 0.000000 0.000000 0.000000
										}
									}
								}
								JOINT RThumb
								{
									OFFSET 0.000000 0.000000 0.000000
									CHANNELS 3 Zrotation Yrotation Xrotation
									End Site
									{
										OFFSET 0.000000 0.000000 0.000000
									}
								}
							}
						}
					}
				}
			}
		}
	}
}
MOTION
Frames: 5
Frame Time: 0.008333
-19.713942 16.138363 -2.718768 -137.220572 89.995498 -112.066642 -14.531871 3.687377 -1.396297 0.366208 8.562827 0.472571 -0.456014 1.177568 18.871494 1.292672 7.749581 12.565684 2.213800 0.000000 -82.455501 6.106564 0.322663 2.884751 7.262805 7.246744 -61.133368 1.717508 -2.269327 33.989907 -1.255126 -5.427666 0.742053 -1.814100 -0.000000 -35.254201 11.780742 -4.603737 0.323308 1.509243 -5.341718 -2.641869 -7.666671 -5.389148 1.686895 12.270655 -8.977242 -6.986676 -3.865832 -0.290102 0.045471 0.000000 0.000000 0.000000 -1.809202 1.214299 3.394636 -29.366973 -9.559304 11.131903 -1.813688 -65.152379 0.015958 -3.925561 -0.596660 0.027230 -0.102679 0.178696 0.000000 0.000000 0.000000 0.000000 0.000000 0.000000 0.000000 19.847171 -9.744511 1.469682 50.727414 -5.133695 -7.890132 4.224888 24.818835 0.022671 4.820156 10.305023 0.426959 0.108628 -0.028270 -0.000000 0.000000 0.000000 0.000000 0.000000 0.000000 0.000000 
-19.498919 16.169499 -2.684205 -137.425550 89.876917 -112.365757 -14.694790 3.649869 -1.365635 0.769216 8.705184 -0.610123 -0.294688 1.322740 21.405358 1.444749 8.182225 14.537184 2.511800 -0.000000 -79.239400 6.040766 0.266012 2.663096 7.903740 6.889209 -60.555764 1.725907 -2.354229 35.011977 -1.237271 -5.204943 -0.030577 -1.655600 -0.000001 -34.829200 12.108055 -4.609066 0.457769 1.566109 -5.356276 -2.632473 -7.679327 -5.406051 1.651054 12.278286 -8.712373 -6.945555 -3.943252 -0.295772 0.053451 0.000000 0.000000 0.000000 -1.822703 1.162519 3.385150 -30.393412 -8.470316 11.686396 -1.887292 -64.348478 0.015072 -3.873737 -0.588280 0.026151 -0.107346 0.166876 0.000000 0.000000 0.000000 0.000000 0.000000 0.000000 0.000000 20.155586 -9.542790 1.473120 50.474836 -4.122069 -7.889497 4.242982 24.411540 0.022633 4.900528 10.307918 0.434457 0.107997 -0.028666 -0.000000 0.000000 0.000000 0.000000 0.000000 0.000000 0.000000 
-19.287002 16.203180 -2.647783 -137.285094 89.788683 -112.355043 -14.835040 3.576846 -1.355957 1.097885 8.910082 -1.775625 -0.155354 1.449264 24.080657 1.608545 8.747740 16.198694 2.848600 -0.000000 -75.026300 5.983145 0.192024 2.438739 8.563273 6.468963 -59.860229 1.766689 -2.424974 35.875920 -1.193372 -4.821997 -0.964964 -1.453100 -0.000000 -34.575500 12.354676 -4.606948 0.616270 1.604149 -5.357711 -2.616522 -7.692175 -5.409651 1.617905 12.309059 -8.434916 -6.884485 -4.019574 -0.301458 0.066722 0.000000 0.000000 0.000000 -1.813619 1.101801 3.371100 -31.415668 -7.420991 12.298070 -1.959971 -63.473050 0.014236 -3.865189 -0.572027 0.025163 -0.110990 0.154429 0.000000 0.000000 0.000000 0.000000 0.000000 0.000000 0.000000 20.486186 -9.332614 1.475695 50.252831 -3.053815 -7.787058 4.261221 23.999443 0.022566 4.990851 10.306609 0.442656 0.107214 -0.029065 -0.000000 0.000000 0.000000 0.000000 0.000000 0.000000 0.000000 
-19.078165 16.239109 -2.609810 -136.706676 89.727857 -111.937112 -14.956120 3.468605 -1.368869 1.354986 9.176416 -3.016629 -0.038808 1.561765 26.862818 1.776183 9.460332 17.483209 3.230801 0.000000 -70.159200 5.927603 0.094385 2.221506 9.226751 6.014938 -59.045315 1.835023 -2.479260 36.561137 -1.132518 -4.328111 -2.004255 -1.231500 0.000000 -34.469500 12.530416 -4.596626 0.790682 1.625777 -5.346280 -2.595300 -7.706383 -5.400169 1.589698 12.354099 -8.109596 -6.800430 -4.094309 -0.307123 0.086049 0.000000 0.000000 0.000000 -1.815345 1.082931 3.359551 -32.379491 -6.487568 13.003695 -2.034323 -62.516877 0.013426 -3.894011 -0.544748 0.023969 -0.114202 0.141509 0.000000 0.000000 0.000000 0.000000 0.000000 0.000000 0.000000 20.824095 -9.072727 1.474650 50.079965 -1.987364 -7.651103 4.278799 23.621887 0.022414 5.128117 10.283608 0.454153 0.106061 -0.029454 -0.000000 0.000000 0.000000 0.000000 0.000000 0.000000 0.000000 
-18.872061 16.276948 -2.569905 -135.734367 89.702413 -111.148885 -15.048105 3.332184 -1.405265 1.516741 9.486198 -4.319823 0.055628 1.666404 29.709552 1.941870 10.332611 18.350768 3.661200 -0.000000 -64.985800 5.882088 -0.020917 2.018635 9.857971 5.543496 -58.125003 1.922646 -2.517339 37.068148 -1.061550 -3.761386 -3.093849 -1.010100 0.000001 -34.482700 12.619370 -4.577973 0.975390 1.628295 -5.321443 -2.570410 -7.719999 -5.377240 1.564356 12.419808 -7.804414 -6.698351 -4.166996 -0.312770 0.110505 0.000000 0.000000 0.000000 -1.786949 1.015680 3.340297 -33.346174 -5.518638 13.733134 -2.104206 -61.538853 0.012646 -3.986704 -0.509898 0.022965 -0.116087 0.127861 0.000000 0.000000 0.000000 0.000000 0.000000 0.000000 0.000000 21.181822 -8.838562 1.476072 49.921938 -0.831365 -7.332459 4.297692 23.239049 0.022291 5.251132 10.269749 0.464749 0.104962 -0.029903 -0.000000 0.000000 0.000000 0.000000 0.000000 0.000000 0.000000 
